# xmcd CD database file
#
# Track frame offsets:
#	150
#	23002
#	39732
#	61117
#	92862
#	122095
#	144762
#	184270
#	211502
#	231825
#
# Disc length: 3383 seconds
#
# Revision: 1
# Processed by: cddbd v1.5.2PL0 Copyright (c) Steve Scherf et al.
# Submitted via: CDex 1.70beta2
#
DISCID=7d0d350a
DTITLE=Giovanni Tommaso Quintet - Secondo Tempo
DYEAR=2001
DGENRE=Jazz
TTITLE0=イタリア式離婚狂想曲
TTITLE1=アマルコルド
TTITLE2=オー・ベニーニ
TTITLE3=サン・ロレンツォの夜
TTITLE4=シシリアン
TTITLE5=つらい生活
TTITLE6=パリを離れて
TTITLE7=豚小屋 
TTITLE8=ゴッドファーザー
TTITLE9=アンドレア
EXTD=YEAR: 2001
EXTT0=
EXTT1=
EXTT2=
EXTT3=
EXTT4=
EXTT5=
EXTT6=
EXTT7=
EXTT8=
EXTT9=
PLAYORDER=
